<?xml version="1.0" standalone="no"?>
<!DOCTYPE svg PUBLIC "-//W3C//DTD SVG 20010904//EN"
 "http://www.w3.org/TR/2001/REC-SVG-20010904/DTD/svg10.dtd">
<svg version="1.0" xmlns="http://www.w3.org/2000/svg"
 width="300.000000pt" height="300.000000pt" viewBox="0 0 300.000000 300.000000"
 preserveAspectRatio="xMidYMid meet">
<metadata>
Created by potrace 1.10, written by Peter Selinger 2001-2011
</metadata>
<g transform="translate(0.000000,300.000000) scale(0.050000,-0.050000)"
fill="#000000" stroke="none">
<path d="M4873 5640 c-5 -17 -33 -140 -62 -275 -317 -1475 -1621 -2942 -2708
-3047 -288 -27 -325 -41 -540 -204 -221 -168 -243 -196 -243 -308 0 -99 2
-100 79 -44 227 168 949 7 1404 -314 180 -127 185 -126 242 28 l35 94 -9 -150
c-13 -232 -119 -507 -273 -714 -43 -57 -78 -112 -78 -122 0 -37 620 -135 646
-103 68 86 114 166 138 239 38 117 76 61 91 -135 13 -156 36 -170 275 -172
189 -1 391 54 535 146 119 75 119 80 -14 184 -132 103 -130 108 25 68 251 -65
436 -31 666 121 209 138 209 138 5 198 -502 149 -961 398 -1277 693 -153 143
-160 164 -45 147 287 -43 547 75 854 385 l231 233 -95 14 c-52 8 -129 36 -170
61 l-75 47 140 12 c277 24 492 227 631 594 80 211 135 684 79 684 -11 0 -20
-8 -20 -17 0 -34 -157 -214 -218 -249 -77 -45 -77 -43 9 127 183 364 223 764
111 1096 -102 303 -346 755 -369 683z m-3011 -3497 c-14 -25 -13 -44 3 -60 17
-17 5 -23 -51 -23 -88 0 -94 22 -19 78 69 51 92 53 67 5z"/>
<path d="M742 5079 c-12 -27 -35 -101 -51 -165 -254 -1006 258 -2037 1209
-2433 237 -100 677 30 1018 299 124 98 125 106 15 148 -48 18 -225 104 -394
192 -327 169 -317 168 -363 45 -41 -112 -91 -33 -65 104 25 135 -214 430 -509
626 -152 102 -170 95 -206 -80 -34 -164 -74 -80 -75 158 l-1 163 -132 197
c-73 108 -198 332 -279 496 -135 276 -148 296 -167 250z"/>
</g>
</svg>
